<?xml version="1.0" encoding="UTF-8"?>
<!-- Created with Inkscape (http://www.inkscape.org/) -->
<svg width="138.65mm" height="138.65mm" version="1.1" viewBox="0 0 138.65 138.65" xmlns="http://www.w3.org/2000/svg" xmlns:cc="http://creativecommons.org/ns#" xmlns:dc="http://purl.org/dc/elements/1.1/" xmlns:rdf="http://www.w3.org/1999/02/22-rdf-syntax-ns#">
 <defs>
  <marker id="DotL" overflow="visible" orient="auto">
   <path transform="scale(.8) translate(7.4 1)" d="m-2.5-1c0 2.76-2.24 5-5 5s-5-2.24-5-5 2.24-5 5-5 5 2.24 5 5z" fill="#008613" fill-rule="evenodd" stroke="#008613" stroke-width="1pt"/>
  </marker>
 </defs>
 <metadata>
  <rdf:RDF>
   <cc:Work rdf:about="">
    <dc:format>image/svg+xml</dc:format>
    <dc:type rdf:resource="http://purl.org/dc/dcmitype/StillImage"/>
    <dc:title/>
   </cc:Work>
  </rdf:RDF>
 </metadata>
 <g transform="translate(-1.7133 -2.0655)">
  <g fill="none" stroke="#000013" stroke-linecap="round" stroke-linejoin="round">
   <circle cx="71.039" cy="71.391" r="68.223" stroke-dasharray="2.20533066, 4.41066141" stroke-width="2.2053" style="paint-order:stroke markers fill"/>
   <ellipse cx="71.039" cy="71.391" rx="59.247" ry="60.192" stroke-dashoffset="8.6173" stroke-width="3.6756" style="paint-order:stroke markers fill"/>
   <circle cx="71.039" cy="71.391" r="50.27" stroke-dasharray="2.20533066, 4.41066141" stroke-width="2.2053" style="paint-order:stroke markers fill"/>
   <path d="m71.039 71.391 41.453-43.006" stroke-width="2.2053" style="paint-order:stroke markers fill"/>
  </g>
  <text x="13.063802" y="7.61198" fill="#000000" font-family="Arial" font-size="3.5278px" letter-spacing="0px" stroke-width=".26458" word-spacing="0px" style="line-height:300px" xml:space="preserve"><tspan x="13.063802" y="158.58478" font-family="Arial" stroke-width=".26458"/></text>
  <text x="80.88842" y="49.888359" fill="#000000" font-family="'Felix Titling'" font-size="25.933px" font-style="italic" font-weight="bold" letter-spacing="0px" stroke-width="1.945" word-spacing="0px" style="line-height:2205.33081055px" xml:space="preserve"><tspan x="80.88842" y="49.888359" font-family="Arial" font-style="italic" font-weight="normal" stroke-width="1.945">r</tspan></text>
  <path d="m6.7564 83.624c-0.12735-3.9967-0.37419-4.3594-0.25412-6.9865 0.2122-4.6429 0.17938-6.0909 0.51732-8.1186 0.21015-1.2609 1.2171-4.3171 3.6046-7.3049 1.7628-2.206 3.4492-3.2776 5.5339-5.7227 2.2017-2.5824 4.1442-3.7287 5.8625-5.8939 0.99326-1.2516 2.8322-4.009 4.6504-6.7561 1.7712-2.676 3.5227-5.3422 4.4537-6.597 2.0503-2.7636 2.9285-3.6602 5.0621-6.3481 1.3337-1.6801 4.2445-4.0773 5.6672-5.6746 1.45-1.628 3.5657-4.0442 5.1538-5.5433 2.3155-2.1856 2.8015-3.1995 5.3841-5.501 1.7936-1.5983 4.1878-3.6096 6.0377-4.9769 3.3085-2.4454 4.6188-2.0281 7.8419-2.6858 2.7599-0.56318 6.3545-0.70285 8.6543-0.12243 2.3735 0.59903 5.7561 1.52 7.8977 2.977 1.6958 1.1536 4.4845 3.5772 6.1823 5.0632 1.7391 1.5221 3.4472 3.1378 5.3266 4.8157 2.5384 2.2662 2.9537 2.6672 6.0483 4.7989 1.8657 1.2852 3.9208 2.4273 6.0632 3.5256 2.3934 1.227 4.4329 2.0356 6.9024 3.292 2.0247 1.03 4.4903 2.4803 6.3924 3.6996 1.6592 1.0635 4.6311 3.7825 6.0856 5.0988 2.8635 2.5914 2.7162 2.3973 4.1886 6.5513 0.69301 1.955 1.9992 5.9489 1.8291 8.243-0.22578 3.0448-0.44294 5.2744-1.5354 8.5038-1.0017 2.9612-1.5765 4.4941-2.7059 7.231-1.3251 3.2113-2.2597 4.4596-2.9005 6.8192-0.57513 2.1177-1.5544 4.8969-2.0153 7.1316-0.38044 1.8446-1.0136 4.6495-1.61 7.3873-0.55791 2.561-1.0837 6.1857-1.3404 7.788-0.71851 4.4848-0.97044 5.2444-1.5421 7.7969-0.38992 1.7411-1.0125 5.335-2.0024 7.9361-0.81455 2.1403-2.08 4.9764-3.3516 6.9576-1.5911 2.4791-3.1371 3.7766-5.5247 4.8272-1.5744 0.69274-4.3149 1.8839-6.8455 1.5886-2.84-0.33147-4.2516-0.6069-7.6184-1.4876-3.0539-0.79884-4.9142-1.5788-7.8392-2.2526-3.0486-0.7022-6.1626-0.57938-8.478-0.53692-2.0833 0.0382-6.8096-0.11213-8.7764 0.69345-2.6055 1.0672-4.8368 1.2711-7.7129 2.6295-3.2134 1.5176-3.1165 2.2334-7.3833 2.5245-1.343 0.0916-5.9359 1.334-7.9608 0.71891-4.3429-1.3191-5.8905-1.6406-7.695-2.3624-0.8666-0.34664-4.2459-2.5828-6.815-4.1177-2.5153-1.5027-3.2252-3.4073-5.3279-5.5708-2.3068-2.3734-3.6633-3.3651-4.8853-5.5625-1.1992-2.1562-2.6922-6.4026-2.4212-8.2095 0.68324-4.5562 1.0607-6.4722-0.04211-8.385-1.2625-2.1898-3.4422-4.0363-5.5108-5.7231-2.6837-2.1882-5.1805-4.1076-5.2459-6.1588z" fill="none" marker-end="url(#DotL)" marker-mid="url(#DotL)" marker-start="url(#DotL)" stroke="#008613" stroke-dasharray="0,7.6999998" stroke-linecap="round" stroke-linejoin="round" stroke-width=".7" style="paint-order:normal"/>
 </g>
</svg>
