<?xml version="1.0" encoding="UTF-8"?>
<!-- Created with Inkscape (http://www.inkscape.org/) -->
<svg width="107.37mm" height="93.517mm" version="1.1" viewBox="0 0 107.37 93.517" xmlns="http://www.w3.org/2000/svg" xmlns:cc="http://creativecommons.org/ns#" xmlns:dc="http://purl.org/dc/elements/1.1/" xmlns:rdf="http://www.w3.org/1999/02/22-rdf-syntax-ns#">
 <defs>
  <radialGradient id="radialGradient937" cx="182.6" cy="33.19" r="23.884" gradientTransform="matrix(2.1825 .03756 -.03064 1.7804 -214.91 -32.761)" gradientUnits="userSpaceOnUse">
   <stop style="stop-color:#00dc00" offset="0"/>
   <stop style="stop-color:#000300;stop-opacity:.98047" offset="1"/>
  </radialGradient>
 </defs>
 <metadata>
  <rdf:RDF>
   <cc:Work rdf:about="">
    <dc:format>image/svg+xml</dc:format>
    <dc:type rdf:resource="http://purl.org/dc/dcmitype/StillImage"/>
    <dc:title/>
   </cc:Work>
  </rdf:RDF>
 </metadata>
 <path d="m32.626 8.4556v57.563h67.113" style="fill:none;paint-order:stroke markers fill;stroke-linecap:round;stroke-linejoin:round;stroke-width:1.8975;stroke:#020202"/>
 <path d="m32.626 66.018-21.776 18.49" style="fill-rule:evenodd;paint-order:stroke markers fill;stroke-linecap:round;stroke-linejoin:round;stroke-width:1.8975;stroke:#020202"/>
 <path d="m0.11865 93.399 9.2704-11.858 4.0803 4.4263z" style="fill-rule:evenodd;paint-order:stroke markers fill;stroke-linecap:round;stroke-linejoin:round;stroke-width:.23736;stroke:#020202"/>
 <path d="m32.88 0.12458 2.9999 11.165-6.3768-0.03211z" style="fill-rule:evenodd;paint-order:stroke markers fill;stroke-linecap:round;stroke-linejoin:round;stroke-width:.24923;stroke:#020202"/>
 <path d="m107.25 66.179-10.352 2.3184-0.0019-4.6473z" style="fill-rule:evenodd;paint-order:stroke markers fill;stroke-linecap:round;stroke-linejoin:round;stroke-width:.22791;stroke:#020202"/>
 <g transform="translate(-119.05 24.147)">
  <path d="m182.6 62.081c-12.459 0-22.89-2.6828-23.221-6.0834v-51.667c0.55128 3.1702 11.092 5.3738 23.55 5.3738 12.459-2e-7 22.558-2.6525 22.892-6.0021v52.299c-0.33157 3.4006-10.763 6.0799-23.221 6.0799z" style="fill-rule:evenodd;fill:url(#radialGradient937);paint-order:stroke markers fill;stroke-linecap:round;stroke-width:1.3263;stroke:url(#radialGradient937)"/>
  <path d="m159.38 4.3305c0-3.272 10.763-6.6573 23.221-6.6573 12.459 1e-7 23.221 2.757 23.221 6.0289 0 0-0.44782 5.8778-22.423 5.8279-22.803-0.051836-24.02-5.1995-24.02-5.1995z" style="fill-rule:evenodd;fill:#003200;paint-order:stroke markers fill;stroke-linecap:round;stroke-width:1.3263;stroke:#003200"/>
 </g>
</svg>
