<?xml version="1.0" encoding="UTF-8"?>
<!-- Created with Inkscape (http://www.inkscape.org/) -->
<svg width="156.02mm" height="84.99mm" version="1.1" viewBox="0 0 156.02 84.99" xmlns="http://www.w3.org/2000/svg" xmlns:cc="http://creativecommons.org/ns#" xmlns:dc="http://purl.org/dc/elements/1.1/" xmlns:rdf="http://www.w3.org/1999/02/22-rdf-syntax-ns#">
 <defs>
  <marker id="Arrow2Mend" style="overflow:visible" orient="auto">
   <path transform="scale(-.6)" d="m8.7186 4.0337-10.926-4.0177 10.926-4.0177c-1.7455 2.3721-1.7354 5.6175-6e-7 8.0354z" style="fill-rule:evenodd;fill:#007e00;stroke-linejoin:round;stroke-width:.625;stroke:#007e00"/>
  </marker>
  <marker id="Arrow2Lend" style="overflow:visible" orient="auto">
   <path transform="matrix(-1.1,0,0,-1.1,-1.1,0)" d="m8.7186 4.0337-10.926-4.0177 10.926-4.0177c-1.7455 2.3721-1.7354 5.6175-6e-7 8.0354z" style="fill-rule:evenodd;stroke-linejoin:round;stroke-width:.625;stroke:#000"/>
  </marker>
 </defs>
 <metadata>
  <rdf:RDF>
   <cc:Work rdf:about="">
    <dc:format>image/svg+xml</dc:format>
    <dc:type rdf:resource="http://purl.org/dc/dcmitype/StillImage"/>
    <dc:title/>
   </cc:Work>
  </rdf:RDF>
 </metadata>
 <g transform="translate(-43.988 .90835)">
  <path d="m45.25 41.958h67.452" style="fill-rule:evenodd;marker-end:url(#Arrow2Lend);paint-order:stroke markers fill;stroke-linecap:round;stroke-width:2.4893;stroke:#000"/>
  <path d="m135.21 58.571 40.815-53.702" style="fill-rule:evenodd;fill:#007e00;marker-end:url(#Arrow2Mend);paint-order:stroke markers fill;stroke-linecap:round;stroke-width:2;stroke:#007e00"/>
  <path d="m133.89 8.8345v50.921l59.369 3e-6" style="fill:none;paint-order:stroke markers fill;stroke-linecap:round;stroke-linejoin:round;stroke-width:1.6786;stroke:#020202"/>
  <path d="m133.89 59.756-19.263 16.357" style="fill-rule:evenodd;paint-order:stroke markers fill;stroke-linecap:round;stroke-linejoin:round;stroke-width:1.6786;stroke:#020202"/>
  <path d="m105.14 83.977 8.2008-10.49 3.6095 3.9156z" style="fill-rule:evenodd;paint-order:stroke markers fill;stroke-linecap:round;stroke-linejoin:round;stroke-width:.20998;stroke:#020202"/>
  <path d="m134.11 2.4859 1.651 6.1449-3.5096-0.01767z" style="fill-rule:evenodd;paint-order:stroke markers fill;stroke-width:1.8664;stroke:#020202"/>
  <path d="m199.91 59.898-9.1574 2.0509-2e-3 -4.1111z" style="fill-rule:evenodd;paint-order:stroke markers fill;stroke-linecap:round;stroke-linejoin:round;stroke-width:.20161;stroke:#020202"/>
 </g>
</svg>
