<?xml version="1.0" encoding="UTF-8"?>
<!-- Created with Inkscape (http://www.inkscape.org/) -->
<svg width="61.992mm" height="53.995mm" version="1.1" viewBox="0 0 61.992 53.995" xmlns="http://www.w3.org/2000/svg" xmlns:cc="http://creativecommons.org/ns#" xmlns:dc="http://purl.org/dc/elements/1.1/" xmlns:rdf="http://www.w3.org/1999/02/22-rdf-syntax-ns#">
 <defs>
  <marker id="Arrow2Mend" style="overflow:visible" orient="auto">
   <path transform="scale(.6) rotate(180) translate(0)" d="m8.7186 4.0337-10.926-4.0177 10.926-4.0177c-1.7455 2.3721-1.7354 5.6175-6e-7 8.0354z" style="fill-rule:evenodd;fill:#007e00;stroke-linejoin:round;stroke-width:.625;stroke:#007e00"/>
  </marker>
 </defs>
 <metadata>
  <rdf:RDF>
   <cc:Work rdf:about="">
    <dc:format>image/svg+xml</dc:format>
    <dc:type rdf:resource="http://purl.org/dc/dcmitype/StillImage"/>
    <dc:title/>
   </cc:Work>
  </rdf:RDF>
 </metadata>
 <g transform="translate(-13.626 -13.668)">
  <g transform="translate(-15.489 -1.825)" style="stroke-width:.1">
   <path d="m47.952 20.375v33.236l38.75 2e-6" style="fill:none;paint-order:stroke markers fill;stroke-linecap:round;stroke-linejoin:round;stroke-width:1.0956;stroke:#020202"/>
   <path d="m47.952 53.611-12.573 10.676" style="fill-rule:evenodd;paint-order:stroke markers fill;stroke-linecap:round;stroke-linejoin:round;stroke-width:1.0956;stroke:#020202"/>
   <path d="m29.183 69.42 5.3526-6.8467 2.3559 2.5557z" style="fill-rule:evenodd;paint-order:stroke markers fill;stroke-linecap:round;stroke-linejoin:round;stroke-width:.13705;stroke:#020202"/>
   <path d="m48.099 15.565 1.7321 6.4467-3.6819-0.01854z" style="fill-rule:evenodd;paint-order:stroke markers fill;stroke-linecap:round;stroke-linejoin:round;stroke-width:.1439;stroke:#020202"/>
   <path d="m91.041 53.704-5.977 1.3386-9.63e-4 -2.6833z" style="fill-rule:evenodd;paint-order:stroke markers fill;stroke-linecap:round;stroke-linejoin:round;stroke-width:.13159;stroke:#020202"/>
  </g>
  <path d="m51.91 58.294 3.4423 3.3956" style="fill:none;paint-order:stroke markers fill;stroke:#787878"/>
  <path d="m55.254 58.272-3.2455 3.4399" style="fill:none;paint-order:stroke markers fill;stroke:#787878"/>
  <path d="m51.833 28.69 3.4423 3.3956" style="fill:none;paint-order:stroke markers fill;stroke:#000"/>
  <path d="m55.177 28.656-3.2455 3.4399" style="fill:none;paint-order:stroke markers fill;stroke:#000"/>
  <path d="m53.554 59.439v-27.603" style="fill-rule:evenodd;fill:#007e00;marker-end:url(#Arrow2Mend);paint-order:stroke markers fill;stroke-linecap:round;stroke-width:.79375;stroke:#007e00"/>
 </g>
</svg>
