<?xml version="1.0" encoding="UTF-8"?>
<!-- Created with Inkscape (http://www.inkscape.org/) -->
<svg width="173.76mm" height="65.642mm" version="1.1" viewBox="0 0 173.76 65.642" xmlns="http://www.w3.org/2000/svg" xmlns:cc="http://creativecommons.org/ns#" xmlns:dc="http://purl.org/dc/elements/1.1/" xmlns:rdf="http://www.w3.org/1999/02/22-rdf-syntax-ns#">
 <metadata>
  <rdf:RDF>
   <cc:Work rdf:about="">
    <dc:format>image/svg+xml</dc:format>
    <dc:type rdf:resource="http://purl.org/dc/dcmitype/StillImage"/>
    <dc:title/>
   </cc:Work>
  </rdf:RDF>
 </metadata>
 <g transform="translate(211.11 24.542)">
  <path d="m-177.77 25.619 140.42 0.03848-40.519 15.456-133.24-0.01471z" style="fill-rule:evenodd;fill:#070;paint-order:stroke markers fill"/>
  <path d="m-176.55 26.451-12.918-47.14-14.253 60.021" style="fill:none;paint-order:stroke markers fill;stroke-linecap:round;stroke-width:.38217;stroke:#003200"/>
  <path d="m-148.49 35.404-40.977-56.092 78.46 46.871" style="fill:none;paint-order:stroke markers fill;stroke-linecap:round;stroke-width:.38217;stroke:#003200"/>
  <path d="m-203.72 39.333 27.232-49.107-0.0612 36.225" style="fill:none;paint-order:stroke markers fill;stroke-linecap:round;stroke-width:.38217;stroke:#003200"/>
  <path d="m-176.95 37.187 0.45229-46.961 19.504 45.305" style="fill:none;paint-order:stroke markers fill;stroke-linecap:round;stroke-width:.38217;stroke:#003200"/>
  <path d="m-176.49-9.774 44.449 41.228" style="fill:none;paint-order:stroke markers fill;stroke-linecap:round;stroke-width:.38217;stroke:#003200"/>
  <path d="m-163.73 34.384 13.483-55.073 8.3603 56.474" style="fill:none;paint-order:stroke markers fill;stroke-linecap:round;stroke-width:.38217;stroke:#003200"/>
  <path d="m-117.48 36.041-32.766-56.729-26.697 57.876" style="fill:none;paint-order:stroke markers fill;stroke-linecap:round;stroke-width:.38217;stroke:#003200"/>
  <path d="m-138.25 37.697 1.894-47.504 10.238 36.008" style="fill:none;paint-order:stroke markers fill;stroke-linecap:round;stroke-width:.38217;stroke:#003200"/>
  <path d="m-148.49 35.404 12.142-45.21 32.624 47.758" style="fill:none;paint-order:stroke markers fill;stroke-linecap:round;stroke-width:.38217;stroke:#003200"/>
  <path d="m-128.27 37.187 14.455-57.843 10.086 58.607" style="fill:none;paint-order:stroke markers fill;stroke-linecap:round;stroke-width:.38217;stroke:#003200"/>
  <path d="m-113.81-20.655 30.717 60.455" style="fill:none;paint-order:stroke markers fill;stroke-linecap:round;stroke-width:.38217;stroke:#003200"/>
  <path d="m-132.04 31.454 18.23-52.11-24.433 58.352" style="fill:none;paint-order:stroke markers fill;stroke-linecap:round;stroke-width:.38217;stroke:#003200"/>
  <path d="m-103.73 37.952 10.66-47.758 9.9719 49.606" style="fill:none;paint-order:stroke markers fill;stroke-linecap:round;stroke-width:.38217;stroke:#003200"/>
  <path d="m-80.405 26.146-12.663-35.953-17.943 35.99" style="fill:none;paint-order:stroke markers fill;stroke-linecap:round;stroke-width:.38217;stroke:#003200"/>
  <path d="m-93.069-9.8067-2.0305 43.809" style="fill:none;paint-order:stroke markers fill;stroke-linecap:round;stroke-width:.38217;stroke:#003200"/>
  <path d="m-75.682 34.257 1.6402-54.945 9.0119 50.231" style="fill:none;paint-order:stroke markers fill;stroke-linecap:round;stroke-width:.38217;stroke:#003200"/>
  <path d="m-80.405 26.146 6.363-46.834-21.057 54.69" style="fill:none;paint-order:stroke markers fill;stroke-linecap:round;stroke-width:.38217;stroke:#003200"/>
  <path d="m-74.042-20.688 28.291 46.792" style="fill:none;paint-order:stroke markers fill;stroke-linecap:round;stroke-width:.38217;stroke:#003200"/>
  <path d="m-45.751 26.104-8.3374-35.878-1.2889 40.045" style="fill:none;paint-order:stroke markers fill;stroke-linecap:round;stroke-width:.38217;stroke:#003200"/>
  <path d="m-65.03 29.543 10.942-39.317-21.594 44.031" style="fill:none;paint-order:stroke markers fill;stroke-linecap:round;stroke-width:.38217;stroke:#003200"/>
  <path d="m-54.089-9.774 14.272 35.87" style="fill:none;paint-order:stroke markers fill;stroke-linecap:round;stroke-width:.38217;stroke:#003200"/>
  <path d="m-191.82-24.495 17.535-0.04701-5.9053 3.8542h-18.553z" style="fill-rule:evenodd;fill:#414141;paint-order:stroke markers fill"/>
  <path d="m-152.6-24.495 17.535-0.04701-5.9053 3.8542h-18.553z" style="fill-rule:evenodd;fill:#414141;paint-order:stroke markers fill"/>
  <path d="m-116.17-24.463 17.535-0.04701-5.9053 3.8542h-18.553z" style="fill-rule:evenodd;fill:#414141;paint-order:stroke markers fill"/>
  <path d="m-76.395-24.495 17.535-0.04701-5.9053 3.8542h-18.553z" style="fill-rule:evenodd;fill:#414141;paint-order:stroke markers fill"/>
  <path d="m-178.85-13.581 17.535-0.04701-5.9053 3.8542h-18.553z" style="fill-rule:evenodd;fill:#414141;paint-order:stroke markers fill"/>
  <path d="m-138.71-13.614 17.535-0.04701-5.9053 3.8542h-18.553z" style="fill-rule:evenodd;fill:#414141;paint-order:stroke markers fill"/>
  <path d="m-95.422-13.614 17.535-0.04701-5.9053 3.8542h-18.553z" style="fill-rule:evenodd;fill:#414141;paint-order:stroke markers fill"/>
  <path d="m-56.442-13.581 17.535-0.04701-5.9053 3.8542h-18.553z" style="fill-rule:evenodd;fill:#414141;paint-order:stroke markers fill"/>
  <path d="m-150.25-20.688-6.7415 56.219" style="fill:none;paint-order:stroke markers fill;stroke-linecap:round;stroke-width:.38217;stroke:#003200"/>
 </g>
</svg>
